# xmcd
#
# Track frame offsets:
#	150
#	5994
#	24995
#	46836
#	69912
#	73430
#	91135
#	98023
#	118829
#	137349
#	142548
#	157119
#	164450
#	183211
#	194502
#	212695
#	231483
#
# Disc length: 3632 seconds
#
# Revision: 0
# Processed by: cddbd v1.5.1PL0 Copyright (c) Steve Scherf et al.
# Submitted via: dBpowerAMP V4.0
#
DISCID=e90e2e11
DTITLE=Avila Brothers - The Mood: Soundsational
DYEAR=2005
DGENRE=R&B
TTITLE0=The Mood
TTITLE1=Soundsational
TTITLE2=I Want You
TTITLE3=Smile ft. Little Brother
TTITLE4=Sweet Symphony
TTITLE5=Love's Mystery
TTITLE6=Mix It
TTITLE7=Tilt Ya Cups ft. Sly Boogy
TTITLE8=Let It Go ft. Shelea
TTITLE9=Play For Me ft. Lauren Evans
TTITLE10=It's Over Now ft. Ahmad Jones
TTITLE11=Boogie Jones Theme
TTITLE12=Something To Feel ft. Dirty Birdy
TTITLE13=Big Jim's Sonata (In F Minor)
TTITLE14=Give The Horns Some
TTITLE15=Nic Of Time
TTITLE16=The Mood Pt. 2
EXTD=You guys need more GENRES!!! This album doesn't does not fall under any of the genre's listed in this box!
EXTT0=
EXTT1=
EXTT2=
EXTT3=
EXTT4=
EXTT5=
EXTT6=
EXTT7=
EXTT8=
EXTT9=
EXTT10=
EXTT11=
EXTT12=
EXTT13=
EXTT14=
EXTT15=
EXTT16=
PLAYORDER=
